<?xml version="1.0" encoding="utf-8"?>
<!-- Generator: Adobe Illustrator 13.0.0, SVG Export Plug-In . SVG Version: 6.00 Build 14948)  -->
<!DOCTYPE svg PUBLIC "-//W3C//DTD SVG 1.1//EN" "http://www.w3.org/Graphics/SVG/1.1/DTD/svg11.dtd">
<svg version="1.1" id="Layer_1" xmlns="http://www.w3.org/2000/svg" xmlns:xlink="http://www.w3.org/1999/xlink" x="0px" y="0px"
	 width="390px" height="60px" viewBox="0 0 390 60" enable-background="new 0 0 390 60" xml:space="preserve">
<g>
	<g>
		<path fill-rule="evenodd" clip-rule="evenodd" d="M172,9c-1.695,8.638-5.66,15.006-9,22c-1.194-4.881,4.201-11.783,6-17
			c-4.105,2.575-8.225,9.013-12,15c-3.621,5.743-5.294,14.094-12,16c2.478-7.855,3.856-16.81,6-25c5.383,4.343-2.233,12.219-2,18
			C157.956,29.623,159.692,14.025,172,9z"/>
		<path fill-rule="evenodd" clip-rule="evenodd" d="M111,37c-0.122,2.545-1.456,3.878-4,4c-3.726-2.384,0.967-4.408-1-7
			c-5.927,6.274-17.182,8.721-28,5c1.233-2.434,0.843-6.49,4-7c0.723,3.056-1.022,3.645-1,6c4.635-2.698,6.896-7.771,11-11
			c-3.669-9.472,2.022-16.971,12-16c1.706,6.316-6.077,10.15-9,15c3.268,4.325,1.305,10.045-2,13c6.603-1.396,10.232-5.769,12-12
			c0.405,1.931,4.099,6.532,5,9C110.022,36.061,105.79,39,111,37z M94,23c2.451-3.549,6.071-5.929,8-10
			C96.785,13.143,90.938,17.904,94,23z M85,38c5.402,1.401,5.3-2.7,9-3c-0.575-1.758,1.208-5.875-1-6
			C90.937,32.604,87.063,34.396,85,38z"/>
		<path fill-rule="evenodd" clip-rule="evenodd" d="M234,13c1.162-0.163,1.779,0.221,2,1c0.606,5.864-4.968,7.458-8,11
			c-6.965,8.136-11.063,19.581-22,24c-6.114-1.491-4.265-12.735,1-14c0.449,5.116-2.738,6.595-3,11
			C219.179,40.179,224.102,24.102,234,13z"/>
		<path fill-rule="evenodd" clip-rule="evenodd" d="M79,15c4.563-1.23-0.093,6.76,3,7C79.514,25.063,78.453,18.28,79,15z"/>
		<path fill-rule="evenodd" clip-rule="evenodd" d="M119,20c0,2.667,0,5.333,0,8c-0.667,0-1.333,0-2,0
			C117.824,25.49,115.056,19.389,119,20z"/>
		<path fill-rule="evenodd" clip-rule="evenodd" d="M132,22c1.615-0.282,1.722,0.945,3,1c-0.586,2.081-2.102,3.232-3,5
			c1.076,2.591,3.616,3.718,4,7c-4.785,11.549-14.705,17.962-27,22c-3.338-5.134,1.804-9.194,6-10c0.178,3.511-3.378,3.289-4,6
			c8.625-1.103,22.733-10.521,21-22c-6.327,2.058-9.113,11.687-17,9c-1.399-3.071-0.517-7.15,3-8c0.726,3.059-1.726,2.941-1,6
			C126.432,37.099,127.862,28.195,132,22z"/>
		<path fill-rule="evenodd" clip-rule="evenodd" d="M182,33c-4.121-1.096-5.794,8.854-11,10c-0.154-2.487,1.571-3.096,2-5
			c-3.474,0.192-3.796,3.537-7,4c-2.395-0.604-4.563-1.438-8-1c0.039-5.294,1.956-8.711,7-9c-0.791,3.21-3.631,4.369-5,7
			c6.712,0.379,3.659-9.008,9-10c-0.617,3.716-2.383,6.284-3,10c6.197-2.926,13.22-9.948,19-10c-3.799,6.359-0.375,10.785,5,13
			C187.037,43.911,177.979,38.073,182,33z"/>
		<path fill-rule="evenodd" clip-rule="evenodd" d="M309,31c-0.768,6.232-4.84,9.16-6,15c11.75-1.916,13.414-13.92,21-20
			c4.876-0.209,4.021,5.312,4,10c6.751,1.751,4.162-5.838,10-5c0.1,4.767-3.334,5.999-4,10c3.848,0.491,5.433-9.883,10-12
			c3.363-0.364,1.667,4.333,3,6c5.476-2.927,8.58-11.046,17-8c1.666,1.334,0.334,5.666,2,7c2.063,1.344,5.063-4.9,10-4
			c2.45,6.054-5.883,9.254-7,15c2.588,7.178,14.842,2.859,21,2c-3.811,6.158-18.047,6.173-24,2c-0.561-7.228,3.758-9.575,6-14
			c-8.289,1.045-5.582,13.085-14,14c-0.07-5.07,3.537-6.463,4-11c-4.83-0.146-5.167,12.82-14,12c-2.612-1.754-2.357-6.972-1-10
			c-0.097-2.57-3.903-1.43-4-4c-5.211,2.122-4.165,10.501-11,11c-1.546-1.454-0.881-5.119-1-8c-6.043,1.552-10.49,11.032-18,5
			c-4.191,1.476-5.928,5.405-12,5c-2.63-3.13,0.735-6.67,1-10c-4.446,2.554-3.71,10.29-10,11c3.96-11.04,10.771-19.229,16-29
			c-6.387,2.621-12.872,13.788-23,16c-1.448,5.552-2.646,11.354-9,12c-0.646-5.98,2.635-8.031,4-12c-6.437,2.23-7.799,9.534-16,10
			c-1.117-1.55-3.251-2.083-3-5c-5.182,0.818-6.938,5.062-14,4c-1.151-1.182-1.132-3.535-1-6c-8.112-1.3-19.362,10.075-22-1
			c2.244-2.126,6.589-0.713,7,2c5.385-2.948,12.732-3.935,11-14c-3.727-0.603-6.325,2.557-9,0c0.389-4.278,4.57-4.764,9-5
			c8.795-5.159,10.484-17.987,1-20c-9.624-2.042-33.303,12.166-28,26c-9.421-1.618,1.025-16.21,4-19c8.563-8.031,25.997-12.714,33-4
			c1.189,9.856-3.052,14.282-7,19c1.326,5.557-0.085,8.502-2,13c6.287-1.217,7.312-12.457,16-8c0.147,8.147-11.043,4.957-11,13
			c0.19,0.81,1.003,0.997,1,2c5.235-1.098,9.234-3.433,13-6c0.189-6.674,4.984-13.413,11-11c0.457,9.124-10.187,7.147-9,17
			c7.165,0.165,8.557-5.443,13-8c0.164-3.164-2.658-3.342-2-7c1.926-2.025,4.023-2.325,7-1c11.207-6.126,11.368-23.299,24-28
			c1.02,8.254-8.603,12.621-13,19c-3.465,5.026-4.07,10.796-8,15c17.679-4.655,21.943-22.724,37-30
			c-4.723,9.278-11.224,16.777-16,26C304.158,33.356,305.88,30.495,309,31z M302,6C294.844,11.111,304.101,4.5,302,6L302,6z M266,35
			c1.789-1.877,3.571-3.762,5-6C267.854,28.911,263.921,33.178,266,35z M354,35c3.814,0.104,10.155-2.454,7-6
			C358.386,30.719,353.992,30.659,354,35z M251,34c2.717-0.616,4.684-1.983,6-4C254.033,30.366,252.066,31.733,251,34z M278,32
			c1.721,0.054,2.563-0.77,3-2C279.279,29.946,278.437,30.77,278,32z M318,44c3.638-0.362,5.638-2.362,6-6
			C320.014,34.334,314.848,40.527,318,44z M350,46c3.531-0.466,9.496-8.05,6-9C352.703,38.703,348.757,39.757,350,46z M281,40
			C276.84,45.613,282.66,42.856,281,40L281,40z"/>
		<path fill-rule="evenodd" clip-rule="evenodd" d="M52,19c6.823-2.574,16.484-16.101,27-15c-7.354,11.646-19.992,18.008-31,26
			c0.332,3.998-1.783,5.551-1,10c10.504-0.162,12.557-8.776,21-11c1.052,4.386-3.382,3.284-3,7c4.716-0.284,5.912-4.088,10-5
			c-0.298,3.296-3.458,4.997,0,7c-0.627,2.433-5.053,0.529-4-2c-3.032,1.301-5.768,2.899-9,4c0-1.333,0-2.667,0-4
			c-5.845,1.749-11.669,9.854-18,5c-0.438-3.438,0.395-5.604,1-8c-8.393,3.491-15.66,8.646-23,14C15.038,52.079,8.538,59.44,0,60
			c1.316-11.33,23.657-16.745,34-25c3.297-2.631,7.297-5.918,10-9c3.564-4.064,2.771-8.154,10-10C53.14,16.807,53.406,18.739,52,19z
			 M52,25c5.724-4.951,16.457-10.199,18-16C63.966,13.64,53.435,19.091,52,25z M4,58c1.896-3.462,9.889-6.078,9-9
			C10.722,52.08,2.22,54.188,4,58z"/>
	</g>
</g>
</svg>
